<?xml version="1.0" standalone="no"?>
<!DOCTYPE svg PUBLIC "-//W3C//DTD SVG 20010904//EN"
 "http://www.w3.org/TR/2001/REC-SVG-20010904/DTD/svg10.dtd">
<svg version="1.0" xmlns="http://www.w3.org/2000/svg"
 width="1024.000000pt" height="1024.000000pt" viewBox="0 0 1024.000000 1024.000000"
 preserveAspectRatio="xMidYMid meet">

<g transform="translate(0.000000,1024.000000) scale(0.100000,-0.100000)"
fill="#000000" stroke="none">
<path d="M0 5120 l0 -5120 5120 0 5120 0 0 5120 0 5120 -5120 0 -5120 0 0
-5120z m8359 3495 c190 -45 342 -187 406 -378 l26 -78 -3 -587 -3 -587 -28
-70 c-49 -125 -157 -245 -272 -303 -113 -56 -106 -56 -698 -59 l-548 -4 -230
-197 c-127 -108 -249 -209 -271 -224 -71 -48 -170 -32 -203 32 -12 23 -15 68
-15 213 l0 183 -51 13 c-190 49 -355 211 -404 396 -22 86 -22 1162 0 1245 52
195 212 351 415 404 84 22 1786 23 1879 1z m-6004 -490 l0 -130 -192 -3 -193
-2 0 -650 0 -651 -137 3 -138 3 -3 647 -2 648 -188 2 -187 3 -3 119 c-1 66 0
126 2 133 4 11 102 13 523 11 l518 -3 0 -130z m545 -650 l0 -786 -142 3 -143
3 -3 770 c-1 424 0 776 3 783 3 9 42 12 145 12 l140 0 0 -785z m1050 763 c5
-13 41 -131 79 -263 39 -132 110 -377 159 -545 176 -602 205 -707 199 -724 -6
-15 -22 -16 -134 -14 l-128 3 -46 165 -46 165 -265 3 -265 2 -45 -167 -45
-168 -135 -3 c-103 -2 -137 1 -140 10 -3 7 24 112 59 233 35 121 133 463 219
760 85 297 157 546 159 553 3 9 49 12 185 12 178 0 181 0 190 -22z m-892
-3813 c333 -54 616 -230 793 -492 215 -318 264 -680 143 -1043 -32 -96 -62
-158 -190 -395 -24 -44 -58 -123 -76 -175 -31 -92 -32 -100 -33 -265 0 -155 3
-180 29 -280 15 -60 55 -182 88 -270 60 -160 69 -205 49 -242 -22 -43 -36 -44
-723 -41 l-658 3 -25 26 c-23 23 -29 44 -50 184 -33 216 -32 214 -68 236 -29
17 -52 19 -228 19 -122 0 -209 4 -230 12 -58 19 -117 67 -146 116 -25 42 -28
58 -31 152 -3 92 -7 114 -34 173 -22 51 -28 76 -24 101 5 25 2 37 -14 51 -24
22 -26 70 -6 163 16 71 18 68 -61 75 -66 5 -118 43 -145 104 -31 71 -21 99
130 350 l137 227 1 170 c1 149 5 184 27 268 106 402 447 698 891 772 111 19
340 19 454 1z m5556 -317 c23 -7 59 -30 82 -53 77 -78 74 -37 74 -952 l0 -813
107 -213 c86 -172 106 -221 107 -257 1 -63 -28 -117 -83 -151 l-45 -29 -1428
0 c-1228 0 -1433 2 -1457 14 -68 36 -120 133 -107 199 3 17 53 118 111 225
l105 195 0 817 c0 884 -1 873 54 944 14 19 49 46 78 60 l52 26 1154 0 c885 0
1164 -3 1196 -12z"/>
<path d="M6473 8451 c-122 -45 -211 -135 -253 -260 -20 -61 -21 -75 -18 -624
l3 -562 27 -58 c37 -78 117 -160 193 -198 49 -24 81 -32 151 -37 l89 -7 3
-207 c2 -142 6 -208 13 -208 6 0 57 39 113 86 55 47 166 140 245 207 l144 122
576 5 576 5 67 32 c123 58 204 161 228 292 13 71 13 1031 0 1102 -24 128 -112
243 -228 297 l-57 27 -910 2 c-867 2 -912 2 -962 -16z m1206 -335 c9 -10 -25
-120 -149 -482 -89 -258 -172 -499 -186 -536 l-26 -68 -74 0 c-53 0 -76 4 -80
13 -6 17 11 69 174 532 176 499 190 538 204 547 22 13 124 9 137 -6z m-638
-175 c22 -21 39 -47 39 -57 0 -11 -59 -78 -140 -159 l-139 -139 139 -142 c82
-84 140 -151 140 -162 0 -18 -80 -102 -96 -102 -4 0 -94 86 -200 192 -126 125
-194 199 -194 212 0 27 367 396 394 396 10 0 36 -17 57 -39z m1016 -143 c102
-101 189 -191 195 -202 8 -15 -18 -46 -183 -212 -106 -107 -201 -194 -211
-194 -22 0 -85 55 -94 82 -5 17 20 46 137 164 l143 144 -142 143 c-78 79 -142
149 -142 155 0 18 80 102 97 102 8 0 98 -82 200 -182z"/>
<path d="M3671 7642 c-52 -185 -96 -343 -98 -349 -4 -10 39 -13 191 -13 108 0
196 1 196 3 0 7 -190 690 -192 693 -2 1 -46 -149 -97 -334z"/>
<path d="M2660 4280 c-230 -32 -443 -140 -591 -298 -85 -91 -149 -196 -192
-320 -30 -84 -31 -93 -34 -280 -3 -230 6 -205 -159 -474 -91 -148 -115 -195
-107 -207 7 -11 32 -18 77 -22 74 -6 112 -27 135 -75 12 -23 12 -41 2 -99 -6
-38 -14 -79 -16 -90 -4 -15 2 -24 27 -35 49 -23 58 -60 25 -106 l-26 -37 25
-48 c21 -43 24 -62 24 -159 0 -106 1 -111 28 -140 37 -43 76 -49 293 -49 102
0 197 -5 212 -10 38 -15 106 -79 128 -122 15 -30 59 -268 59 -320 0 -5 215 -9
560 -9 308 0 560 2 560 4 0 2 -18 52 -41 112 -94 253 -132 480 -111 669 18
167 59 275 214 565 37 69 83 172 102 230 166 498 -88 1046 -578 1246 -130 53
-239 74 -406 79 -80 2 -174 0 -210 -5z m10 -279 c5 -11 10 -60 10 -110 l0 -91
70 0 70 0 0 98 c0 63 4 102 12 110 16 16 90 16 106 0 8 -8 12 -47 12 -110 l0
-98 70 0 70 0 0 94 c0 109 9 126 70 126 62 0 70 -16 70 -136 l0 -104 74 -75
74 -75 104 0 c68 0 108 -4 116 -12 16 -16 15 -93 -1 -106 -7 -6 -58 -13 -113
-14 l-99 -3 -3 -72 -3 -72 113 -3 113 -3 3 -48 c5 -72 -3 -77 -124 -77 l-104
0 0 -70 0 -70 103 0 c67 0 107 -4 115 -12 7 -7 12 -33 12 -60 0 -62 -12 -68
-144 -68 l-106 0 -80 -62 -80 -63 0 -151 0 -151 41 -27 c45 -30 78 -91 79
-144 0 -73 -53 -140 -130 -163 -100 -30 -211 57 -210 164 1 46 33 111 69 138
l31 23 0 153 0 153 -60 0 -59 0 -3 -107 -3 -108 -48 -3 c-72 -5 -77 4 -77 119
l0 99 -70 0 -70 0 0 -98 c0 -63 -4 -102 -12 -110 -7 -7 -33 -12 -58 -12 -25 0
-51 5 -58 12 -8 8 -12 48 -12 113 l0 101 -69 62 -70 62 -108 0 c-72 0 -113 4
-121 12 -7 7 -12 33 -12 58 0 25 5 51 12 58 8 8 47 12 110 12 l98 0 0 70 0 70
-97 0 c-54 0 -105 5 -113 10 -15 9 -19 88 -5 110 4 6 50 10 111 10 l104 0 0
75 0 74 -107 3 -108 3 0 60 0 60 108 3 109 3 74 76 74 76 0 103 c0 121 8 134
75 134 34 0 47 -5 55 -19z"/>
<path d="M2566 3618 l-36 -42 0 -277 0 -278 38 -35 37 -36 273 0 274 0 44 36
44 36 0 277 0 277 -36 42 -36 42 -283 0 -283 0 -36 -42z m506 -125 c16 -14 18
-34 18 -189 0 -191 -2 -198 -64 -209 -61 -12 -302 -1 -319 14 -15 12 -17 38
-17 189 0 149 2 178 17 194 14 16 34 18 181 18 140 0 168 -3 184 -17z"/>
<path d="M3122 2384 c-37 -26 -20 -94 24 -94 49 0 73 59 38 94 -19 20 -34 20
-62 0z"/>
<path d="M6283 3960 c-12 -5 -26 -18 -32 -29 -8 -13 -11 -270 -11 -810 l0
-791 1185 0 1185 0 0 789 c0 434 -3 797 -6 806 -18 45 7 44 -1180 44 -626 0
-1129 -4 -1141 -9z m985 -434 c332 -166 653 -334 675 -354 9 -8 17 -23 17 -33
0 -26 -15 -32 -188 -74 l-154 -38 119 -121 c66 -67 132 -136 147 -155 26 -32
26 -34 10 -60 -9 -14 -28 -38 -41 -53 -50 -53 -54 -50 -219 113 l-152 151 -67
-129 c-37 -70 -75 -136 -83 -145 -22 -26 -50 -22 -65 10 -35 67 -307 932 -307
973 0 28 10 37 43 38 9 1 128 -55 265 -123z"/>
<path d="M6111 1995 c-77 -145 -91 -178 -81 -190 18 -22 2771 -23 2789 -1 10
12 -5 49 -76 188 l-88 173 -1225 3 -1226 2 -93 -175z m1741 -82 c24 -21 23
-50 -1 -63 -30 -15 -853 -14 -869 2 -17 17 -15 38 5 60 15 17 42 18 431 18
373 0 417 -2 434 -17z"/>
</g>
</svg>
